# xmcd
#
# Track frame offsets:
#	150
#	20627
#	39695
#	68955
#	88702
#	117345
#	142055
#	168857
#	186710
#	205070
#	231987
#	256710
#	287360
#	313695
#
# Disc length: 4404
#
# Revision: 2
# Processed by: cddbd v1.5.1PL0 Copyright (c) Steve Scherf et al.
# Submitted via: audiograbber 1.81.02
# Normalized: r1:DSETVAR1
#
DISCID=ce11320e
DTITLE=Various Artist - Hits Of The World
DYEAR=1997
DGENRE=Dance
TTITLE0=Taleesa - Internet Love
TTITLE1=Nicki French - Give It Up
TTITLE2=Newton - We're All Alone
TTITLE3=Rene Froger - That's When I'll Stop Loving You
TTITLE4=D.J. Miko - Clementine
TTITLE5=Xpone Feat. Queen Regina - Stranger In Paradise
TTITLE6=Gala - Fred From Desire
TTITLE7=Althea Mc Queen - Heartbroken
TTITLE8=Armand Van Helden - The Funk Phenomena
TTITLE9=Crush - Love Is In The Air
TTITLE10=Dr. DJ Cerla - The DJ
TTITLE11=Ultra Naté - Free
TTITLE12=Libra - A Second Chance
TTITLE13=Hyper Go Go and Adeva - Do Watcha Do
EXTD=
EXTT0=
EXTT1=
EXTT2=
EXTT3=
EXTT4=
EXTT5=
EXTT6=
EXTT7=
EXTT8=
EXTT9=
EXTT10=
EXTT11=
EXTT12=
EXTT13=
PLAYORDER=
